<?xml version="1.0" standalone="no"?>
<!DOCTYPE svg PUBLIC "-//W3C//DTD SVG 20010904//EN"
 "http://www.w3.org/TR/2001/REC-SVG-20010904/DTD/svg10.dtd">
<svg version="1.0" xmlns="http://www.w3.org/2000/svg"
 width="260.000000pt" height="260.000000pt" viewBox="0 0 260.000000 260.000000"
 preserveAspectRatio="xMidYMid meet">
<metadata>
Created by potrace 1.14, written by Peter Selinger 2001-2017
</metadata>
<g transform="translate(0.000000,260.000000) scale(0.100000,-0.100000)"
fill="#000000" stroke="none">
<path d="M2555 2590 c-4 -6 -14 -9 -23 -5 -9 3 -13 3 -9 -1 4 -5 -3 -14 -15
-21 -13 -7 -17 -12 -10 -13 6 0 12 -5 12 -11 0 -5 -4 -7 -10 -4 -5 3 -10 -3
-10 -15 0 -14 -4 -19 -12 -14 -8 5 -7 0 2 -11 13 -16 13 -18 0 -13 -15 5 -50
-31 -50 -51 0 -6 -4 -11 -10 -11 -5 0 -7 7 -4 15 5 11 2 13 -10 9 -8 -3 -14
-11 -13 -17 1 -7 -6 -11 -15 -11 -10 1 -16 -1 -15 -5 0 -3 -5 -17 -12 -31
l-12 -25 21 25 c20 23 21 23 10 2 -6 -12 -8 -26 -5 -31 3 -5 -5 -7 -17 -4 -23
5 -23 5 -3 -11 11 -10 14 -15 8 -11 -15 7 -49 -10 -77 -39 -13 -14 -15 -15 -6
-3 14 19 14 19 -7 6 -13 -8 -23 -17 -23 -22 0 -4 -6 -5 -12 -2 -7 4 -2 -3 12
-15 21 -18 21 -20 4 -11 -28 14 -38 3 -16 -18 10 -9 12 -12 5 -7 -15 10 -49
-16 -58 -45 -4 -10 -9 -18 -13 -18 -4 1 -10 0 -14 -1 -5 -1 -12 -3 -17 -4 -17
-2 -61 -61 -56 -73 2 -7 0 -13 -5 -13 -6 0 -10 -7 -10 -15 0 -8 -4 -15 -8 -15
-5 0 -18 -9 -30 -20 -12 -11 -25 -19 -29 -18 -4 2 -18 -6 -30 -17 -16 -13 -21
-26 -17 -42 4 -14 2 -23 -6 -23 -6 0 -8 6 -4 13 5 9 3 9 -7 -1 -12 -11 -12
-14 1 -22 10 -7 11 -10 3 -11 -34 -4 -38 -6 -36 -17 2 -6 -9 -15 -23 -18 -18
-5 -23 -11 -19 -22 3 -9 3 -13 -1 -9 -4 4 -14 1 -23 -6 -14 -11 -14 -10 -2 6
9 11 10 17 2 17 -6 0 -11 -3 -12 -7 0 -5 -2 -18 -5 -31 -3 -16 0 -21 8 -16 7
4 8 3 4 -5 -6 -9 -11 -9 -24 1 -10 8 -13 8 -9 1 4 -6 2 -13 -5 -15 -12 -4 -17
-23 -21 -70 -1 -15 -5 -30 -9 -34 -4 -3 -5 5 -2 19 5 32 -9 42 -30 21 -9 -8
-20 -13 -25 -10 -8 5 -56 -63 -51 -73 1 -2 -4 -8 -12 -13 -9 -6 -5 -8 12 -4
14 3 19 3 12 0 -6 -3 -10 -10 -7 -15 4 -5 0 -7 -7 -4 -17 6 -31 -4 -46 -35 -7
-14 -10 -17 -8 -7 3 9 1 17 -4 17 -6 0 -10 -8 -11 -17 0 -11 -3 -13 -6 -5 -2
6 -9 12 -14 12 -6 0 -7 -4 -4 -10 3 -5 -2 -10 -12 -10 -15 0 -16 -2 -3 -10 13
-8 13 -10 -2 -10 -12 0 -15 -5 -11 -17 5 -12 3 -14 -8 -8 -8 5 -5 -2 6 -16 11
-13 13 -18 5 -11 -20 17 -35 15 -20 -4 8 -8 9 -14 4 -13 -26 5 -36 -2 -31 -21
4 -16 2 -18 -12 -11 -20 11 -47 -2 -37 -17 3 -6 1 -14 -5 -18 -7 -4 -9 -3 -5
4 12 20 -9 19 -28 -1 -16 -17 -17 -19 -3 -14 9 3 17 2 17 -3 0 -6 -10 -10 -22
-10 -23 -1 -23 -1 -3 -16 12 -10 14 -14 5 -12 -14 4 -50 -30 -50 -48 0 -4 6 1
14 11 13 18 51 32 40 14 -3 -5 -9 -7 -14 -4 -5 3 -13 -2 -18 -11 -5 -10 -21
-18 -36 -20 -14 -1 -33 -9 -41 -17 -8 -9 -20 -17 -26 -19 -7 -2 -13 -13 -14
-24 0 -10 -6 -28 -12 -38 -6 -10 -8 -27 -6 -37 3 -11 0 -19 -6 -19 -7 0 -9 5
-6 10 3 6 1 10 -4 10 -6 0 -11 -4 -11 -10 0 -5 -6 -7 -14 -4 -8 3 -17 0 -22
-7 -4 -8 -3 -10 4 -5 8 5 10 2 6 -8 -5 -13 -10 -12 -25 8 -11 14 -28 28 -39
31 -11 4 -17 12 -13 21 3 7 0 14 -6 14 -6 0 -11 -5 -11 -12 0 -6 -3 -8 -6 -5
-4 4 -1 13 6 22 10 12 9 15 -5 15 -15 0 -16 2 -4 17 10 11 10 14 2 9 -9 -5
-13 0 -13 14 0 12 -4 18 -10 15 -5 -3 -10 -2 -10 4 0 6 -7 8 -15 5 -13 -5 -13
-9 -3 -23 11 -14 11 -14 -3 -4 -9 7 -19 10 -22 6 -4 -3 -7 -1 -7 5 0 7 5 12
10 12 6 0 10 5 10 11 0 6 -7 9 -15 6 -8 -4 -17 -2 -20 4 -4 5 -11 6 -17 3 -7
-4 -8 -2 -4 5 6 9 11 9 23 -1 15 -12 15 -11 2 10 -14 23 -29 29 -29 12 0 -5
-5 -10 -12 -10 -6 0 -4 7 6 18 15 18 14 21 -14 60 -17 24 -38 42 -49 42 -11 0
-23 5 -26 10 -3 6 -12 10 -18 10 -7 0 -4 -6 5 -14 10 -7 15 -16 11 -19 -11
-12 -32 27 -22 40 12 13 -28 46 -44 36 -6 -3 -7 -1 -3 6 4 6 11 9 16 6 5 -3 7
4 5 16 -5 28 -15 38 -15 16 0 -10 -4 -17 -9 -17 -4 0 -6 12 -4 28 4 21 2 24
-6 12 -10 -14 -16 -7 -12 14 1 5 -6 3 -15 -5 -10 -8 -15 -9 -12 -4 4 6 -9 21
-28 34 -22 15 -31 27 -24 31 8 5 6 9 -5 14 -9 3 -13 10 -10 16 3 5 1 10 -5 10
-6 0 -9 4 -6 9 3 5 0 13 -7 18 -19 14 -69 34 -63 25 2 -4 -5 -9 -17 -9 -14 -2
-17 1 -9 6 10 6 9 14 -5 39 -10 18 -22 32 -26 32 -5 0 -6 -4 -2 -9 3 -5 1 -12
-4 -15 -5 -4 -8 2 -7 11 2 10 -2 22 -8 26 -7 6 -4 7 7 3 12 -4 17 -2 15 6 -3
7 -10 14 -16 14 -7 1 -15 3 -19 4 -5 1 -11 2 -16 1 -9 -1 -9 13 0 22 3 4 12
-1 19 -11 7 -9 14 -12 14 -6 0 6 -7 17 -15 24 -8 7 -15 9 -15 6 0 -4 -9 -2
-19 4 -14 7 -21 6 -24 -3 -3 -6 -6 -2 -6 9 -1 25 -25 49 -41 39 -5 -3 -10 -1
-10 4 0 6 5 11 10 11 7 0 7 6 1 19 -6 10 -8 21 -5 24 9 8 -32 27 -41 19 -5 -4
-5 1 -2 10 5 13 1 16 -21 12 -15 -3 -23 -2 -19 2 9 9 -13 35 -24 28 -5 -3 -9
0 -9 6 0 6 -5 8 -12 4 -10 -6 -10 -5 0 8 10 12 10 18 -2 28 -9 6 -20 9 -25 6
-6 -4 -8 6 -6 23 3 19 -1 31 -11 35 -12 4 -14 0 -10 -17 4 -17 3 -17 -6 4 -6
14 -23 31 -39 38 -17 7 -29 20 -29 31 0 10 -7 26 -16 34 -8 9 -12 21 -8 28 5
8 2 9 -10 5 -10 -4 -15 -3 -11 3 9 14 -4 32 -18 23 -6 -4 -23 -8 -37 -9 -21
-3 -22 -1 -7 7 9 6 23 7 30 3 9 -5 9 -4 1 5 -9 9 -17 10 -31 2 -19 -10 -20
-22 -20 -263 -1 -174 3 -258 11 -267 8 -11 8 -13 0 -8 -14 8 -14 -91 0 -112 6
-9 5 -12 -1 -8 -13 8 -12 -92 1 -112 6 -9 5 -12 -1 -8 -13 8 -12 -92 1 -112 6
-9 5 -12 -1 -8 -13 8 -12 -92 1 -112 6 -9 5 -12 -1 -8 -13 8 -12 -92 1 -112 6
-9 5 -12 -1 -8 -13 8 -12 -92 1 -112 6 -9 5 -12 -1 -8 -13 8 -12 -92 1 -112 6
-9 5 -12 -1 -8 -13 8 -12 -92 1 -112 6 -9 5 -12 -1 -8 -13 8 -12 -92 1 -112 6
-9 5 -12 -1 -8 -13 8 -12 -92 1 -112 6 -9 5 -12 -1 -8 -13 8 -12 -92 1 -112 6
-9 5 -12 -1 -8 -13 8 -12 -92 1 -112 6 -9 5 -12 -1 -8 -13 8 -12 -92 1 -112 6
-9 5 -12 -1 -8 -6 4 -10 -28 -9 -91 l1 -97 1296 -3 1296 -2 0 1295 c0 712 -2
1293 -5 1290 -3 -3 -11 0 -18 6 -8 7 -14 7 -19 -1z m26 -17 c13 -16 12 -17 -3
-4 -17 13 -22 21 -14 21 2 0 10 -8 17 -17z m-16 -21 c-3 -3 -11 0 -18 7 -9 10
-8 11 6 5 10 -3 15 -9 12 -12z m-68 -88 c-3 -3 -12 -4 -19 -1 -8 3 -5 6 6 6
11 1 17 -2 13 -5z m-24 -27 c-5 -8 -8 -7 -11 1 -2 7 -9 9 -14 6 -7 -4 -8 -2
-4 4 4 6 13 9 21 6 8 -4 12 -11 8 -17z m-58 -37 c-3 -5 -12 -10 -18 -10 -7 0
-6 4 3 10 19 12 23 12 15 0z m-81 -95 c-4 -8 -10 -12 -15 -9 -13 8 -11 -10 3
-26 7 -8 4 -7 -7 3 -20 18 -20 18 -1 33 25 18 27 18 20 -1z m-121 -112 c-5
-12 -3 -14 8 -8 8 5 11 5 6 -1 -5 -5 -13 -10 -18 -10 -22 -3 -23 -5 -9 -14 13
-8 12 -10 -2 -10 -22 0 -23 9 -2 38 18 26 26 29 17 5z m-2050 -69 c-3 -8 -7
-14 -10 -14 -3 0 -3 6 0 14 3 9 -4 21 -19 30 -13 9 -24 20 -24 25 0 5 13 -2
29 -16 16 -14 27 -32 24 -39z m1993 6 c0 -12 -4 -16 -9 -11 -5 5 -6 14 -3 20
10 15 12 14 12 -9z m-53 -37 c-7 -2 -9 -12 -6 -21 4 -14 3 -15 -5 -2 -11 15 5
47 17 34 3 -4 1 -9 -6 -11z m-1846 -39 c-3 -3 -12 -4 -19 -1 -8 3 -5 6 6 6 11
1 17 -2 13 -5z m1833 -11 c0 -5 -5 -15 -10 -23 -7 -12 -9 -10 -7 8 1 19 17 33
17 15z m-1799 -47 c-6 -7 -7 -17 -3 -21 4 -5 1 -5 -6 -1 -9 6 -10 11 -3 20 6
7 7 17 3 21 -4 5 -1 5 6 1 9 -6 10 -11 3 -20z m1766 9 c0 -8 -4 -12 -8 -10
-10 7 -30 -21 -21 -30 4 -5 1 -5 -6 -1 -11 6 -11 11 0 24 10 14 29 31 34 32 0
0 1 -7 1 -15z m-80 -57 c-3 -8 -6 -5 -6 6 -1 11 2 17 5 13 3 -3 4 -12 1 -19z
m-1597 -12 c0 -2 -7 -7 -16 -10 -8 -3 -12 -2 -9 4 6 10 25 14 25 6z m26 -55
c-4 -5 -1 -11 6 -13 8 -3 6 -6 -4 -10 -11 -5 -15 -2 -13 10 5 23 4 22 11 22 3
0 3 -4 0 -9z m1515 -18 c13 -16 12 -17 -3 -4 -10 7 -18 15 -18 17 0 8 8 3 21
-13z m-21 -39 c0 -8 -19 -13 -24 -6 -3 5 1 9 9 9 8 0 15 -2 15 -3z m-93 -70
c-3 -3 -12 -4 -19 -1 -8 3 -5 6 6 6 11 1 17 -2 13 -5z m-12 -23 c3 -5 2 -12
-3 -15 -5 -3 -9 1 -9 9 0 17 3 19 12 6z m-91 -50 c3 -5 -1 -11 -9 -14 -9 -4
-12 -1 -8 9 6 16 10 17 17 5z m-1059 -10 c3 -5 2 -12 -3 -15 -5 -3 -9 1 -9 9
0 17 3 19 12 6z m10 -51 c3 -6 -1 -7 -9 -4 -18 7 -21 14 -7 14 6 0 13 -4 16
-10z m53 -58 c2 -7 -1 -12 -8 -12 -6 0 -8 5 -5 10 9 14 -8 12 -25 -2 -12 -11
-12 -10 -1 5 15 19 32 18 39 -1z m919 -34 c2 -17 0 -19 -7 -8 -5 8 -6 18 -4
22 8 12 10 10 11 -14z m-877 -2 c0 -3 -4 -8 -10 -11 -5 -3 -10 -1 -10 4 0 6 5
11 10 11 6 0 10 -2 10 -4z m820 -26 c0 -5 -5 -10 -11 -10 -5 0 -7 5 -4 10 3 6
8 10 11 10 2 0 4 -4 4 -10z m-746 -48 c3 -5 -1 -9 -9 -9 -8 0 -12 4 -9 9 3 4
7 8 9 8 2 0 6 -4 9 -8z m641 -52 c3 -5 1 -10 -4 -10 -6 0 -11 5 -11 10 0 6 2
10 4 10 3 0 8 -4 11 -10z m-560 -10 c3 -6 -1 -7 -9 -4 -18 7 -21 14 -7 14 6 0
13 -4 16 -10z m29 -45 c16 -25 16 -25 -2 -14 -10 6 -19 18 -19 25 0 19 2 18
21 -11z m373 -110 c0 -8 -4 -12 -9 -9 -5 3 -6 10 -3 15 9 13 12 11 12 -6z
m-22 -15 c4 -6 1 -9 -7 -8 -7 2 -12 -3 -10 -9 1 -7 -2 -13 -8 -13 -14 0 -13
13 2 28 15 15 15 15 23 2z m-178 -107 c2 -6 -1 -14 -6 -18 -7 -4 -8 0 -4 11 4
11 3 15 -5 10 -6 -3 -13 -2 -16 3 -4 5 2 8 11 7 9 -2 19 -8 20 -13z m42 -37
c-3 -3 -11 5 -18 17 -13 21 -12 21 5 5 10 -10 16 -20 13 -22z m58 9 c0 -8 -4
-12 -9 -9 -4 3 -8 9 -8 15 0 5 4 9 8 9 5 0 9 -7 9 -15z"/>
<path d="M230 2100 c0 -5 5 -10 10 -10 6 0 10 5 10 10 0 6 -4 10 -10 10 -5 0
-10 -4 -10 -10z"/>
</g>
</svg>
